<svg width="137" height="30" viewBox="0 0 137 30" fill="none" xmlns="http://www.w3.org/2000/svg">
<path fill-rule="evenodd" clip-rule="evenodd" d="M105.303 7.62184V0.896238C105.303 0.798738 105.223 0.719238 105.126 0.719238H101.988C101.891 0.719238 101.811 0.798738 101.811 0.896238V24.0588C101.811 24.1559 101.891 24.2358 101.988 24.2358H105.126C105.223 24.2358 105.303 24.1559 105.303 24.0588V14.2132C105.303 12.1128 107.023 10.3916 109.121 10.3916C111.22 10.3916 112.94 12.1128 112.94 14.2132V24.0588C112.94 24.1559 113.02 24.2358 113.117 24.2358H116.255C116.353 24.2358 116.432 24.1559 116.432 24.0588V14.2136C116.432 10.188 113.144 6.89697 109.121 6.89697C107.892 6.89697 106.685 7.20821 105.609 7.80221C105.543 7.83859 105.468 7.83746 105.404 7.79921C105.339 7.76134 105.303 7.69684 105.303 7.62184Z" fill="#151516"/>
<path fill-rule="evenodd" clip-rule="evenodd" d="M61.5118 7.35101C57.257 7.87713 54.061 11.5086 54.061 15.7967C54.061 20.0845 57.257 23.7163 61.5118 24.2424C61.8611 24.2856 62.2129 24.3073 62.5651 24.3073C62.917 24.3073 63.2689 24.2856 63.6185 24.2424C64.3791 24.1483 65.1248 23.9518 65.8326 23.6574C65.8993 23.6293 65.9379 23.5716 65.9379 23.4992V20.0256C65.9379 19.9573 65.9042 19.903 65.8428 19.8726C65.7817 19.8418 65.718 19.8482 65.6633 19.8895C65.0019 20.3923 64.2307 20.7246 63.4116 20.8607C63.1321 20.9068 62.8484 20.9305 62.5651 20.9305C62.2815 20.9305 61.9982 20.9072 61.7187 20.8607L61.6475 20.8487C59.2092 20.4115 57.4353 18.2732 57.4353 15.7967C57.4353 13.2917 59.2474 11.1426 61.7187 10.7327C61.9982 10.6866 62.2815 10.663 62.5651 10.663C62.8484 10.663 63.1317 10.6862 63.4112 10.7327L63.4783 10.744C65.9185 11.1797 67.695 13.3187 67.695 15.7967V23.8693C67.695 23.9631 67.7722 24.0403 67.8662 24.0403H70.8984C70.9921 24.0403 71.0693 23.9631 71.0693 23.8693V15.7967C71.0693 11.5086 67.8733 7.87713 63.6185 7.35101C63.2689 7.30788 62.917 7.28613 62.5651 7.28613C62.2129 7.28613 61.8611 7.30788 61.5118 7.35101Z" fill="#151516"/>
<path fill-rule="evenodd" clip-rule="evenodd" d="M126.703 7.19573C122.448 7.72186 119.252 11.3533 119.252 15.6415C119.252 19.9292 122.448 23.561 126.703 24.0872C127.052 24.1303 127.404 24.152 127.756 24.152C128.108 24.152 128.46 24.1303 128.81 24.0872C129.57 23.993 130.316 23.7965 131.024 23.5022C131.091 23.474 131.129 23.4163 131.129 23.3439V19.8703C131.129 19.8021 131.096 19.7477 131.034 19.7173C130.973 19.6866 130.909 19.6929 130.855 19.7342C130.193 20.2371 129.422 20.5693 128.603 20.7054C128.323 20.7516 128.04 20.7752 127.756 20.7752C127.473 20.7752 127.19 20.7519 126.91 20.7054L126.839 20.6934C124.401 20.2562 122.627 18.1179 122.627 15.6415C122.627 13.1365 124.439 10.9873 126.91 10.5775C127.19 10.5313 127.473 10.5077 127.756 10.5077C128.04 10.5077 128.323 10.531 128.603 10.5775L128.67 10.5887C131.11 11.0245 132.886 13.1635 132.886 15.6415V23.714C132.886 23.8078 132.964 23.885 133.058 23.885H136.09C136.183 23.885 136.261 23.8078 136.261 23.714V15.6415C136.261 11.3533 133.065 7.72186 128.81 7.19573C128.46 7.15261 128.108 7.13086 127.756 7.13086C127.404 7.13086 127.052 7.15261 126.703 7.19573Z" fill="#151516"/>
<path fill-rule="evenodd" clip-rule="evenodd" d="M22.3643 0C21.2185 0 20.2896 0.929621 20.2896 2.07637C20.2896 3.22274 21.2185 4.15236 22.3643 4.15236C23.5102 4.15236 24.4387 3.22274 24.4387 2.07637C24.4387 0.929621 23.5102 0 22.3643 0ZM20.7988 5.81323C20.7021 5.81323 20.6227 5.89273 20.6227 5.98948V24.1308C20.6227 24.2279 20.7021 24.3074 20.7988 24.3074H23.9295C24.0266 24.3074 24.106 24.2279 24.106 24.1308V5.98948C24.106 5.89273 24.0266 5.81323 23.9295 5.81323H20.7988Z" fill="#FF645C"/>
<path fill-rule="evenodd" clip-rule="evenodd" d="M49.3251 0C48.1792 0 47.2503 0.929621 47.2503 2.07637C47.2503 3.22274 48.1792 4.15236 49.3251 4.15236C50.471 4.15236 51.3995 3.22274 51.3995 2.07637C51.3995 0.929621 50.471 0 49.3251 0ZM47.7595 5.81323C47.6629 5.81323 47.5834 5.89273 47.5834 5.98948V24.1308C47.5834 24.2279 47.6629 24.3074 47.7595 24.3074H50.8903C50.9873 24.3074 51.0668 24.2279 51.0668 24.1308V5.98948C51.0668 5.89273 50.9873 5.81323 50.8903 5.81323H47.7595Z" fill="#FF645C"/>
<path fill-rule="evenodd" clip-rule="evenodd" d="M74.2495 0.820557C74.1525 0.820557 74.0731 0.900056 74.0731 0.997181V24.1305C74.0731 24.228 74.1525 24.3075 74.2495 24.3075H77.3799C77.4773 24.3075 77.5564 24.228 77.5564 24.1305V0.997181C77.5564 0.900056 77.4773 0.820557 77.3799 0.820557H74.2495Z" fill="#151516"/>
<path fill-rule="evenodd" clip-rule="evenodd" d="M7.69248 6.80159C3.29972 7.34459 0 11.0942 0 15.5211C0 19.9479 3.29972 23.6972 7.69248 24.2402C8.05296 24.2848 8.41643 24.3073 8.7799 24.3073C9.14337 24.3073 9.50647 24.2848 9.86732 24.2402C14.2597 23.6972 17.5594 19.9479 17.5594 15.5211V0.744617C17.5594 0.647493 17.48 0.567993 17.3829 0.567993H14.2526C14.1552 0.567993 14.0757 0.647493 14.0757 0.744617V15.5211C14.0757 18.1071 12.2048 20.3255 9.65373 20.7489C9.36483 20.7969 9.07255 20.8213 8.7799 20.8213C8.48725 20.8213 8.1946 20.7969 7.90607 20.7489L7.83263 20.7365C5.3153 20.285 3.48371 18.0774 3.48371 15.5211C3.48371 12.9347 5.35465 10.7162 7.90607 10.2932C8.1946 10.2452 8.48725 10.2208 8.7799 10.2208C9.07255 10.2208 9.36483 10.2448 9.65373 10.2928L9.72268 10.3045C10.5425 10.4511 11.3152 10.7912 11.9784 11.2956C12.0347 11.3383 12.1006 11.3447 12.1639 11.3132C12.2273 11.2817 12.2617 11.2255 12.2617 11.155V7.56884C12.2617 7.49422 12.222 7.43422 12.1531 7.40572C11.4228 7.10159 10.6523 6.89872 9.86732 6.80159C9.50647 6.75697 9.14337 6.73447 8.7799 6.73447C8.41643 6.73447 8.05296 6.75697 7.69248 6.80159Z" fill="#FF645C"/>
<path fill-rule="evenodd" clip-rule="evenodd" d="M42.3823 24.2147C42.4576 24.1539 42.5697 24.1659 42.6304 24.2413L44.5935 26.6814C44.6542 26.7572 44.6422 26.8693 44.5669 26.9301C42.5524 28.5542 40.1363 29.5764 37.5691 29.894C37 29.9645 36.4263 29.9998 35.853 29.9998C35.2796 29.9998 34.706 29.9645 34.1368 29.894C31.5696 29.5764 29.1535 28.5542 27.139 26.9301C27.0637 26.8693 27.0517 26.7572 27.1124 26.6814L29.0755 24.2413C29.1362 24.1659 29.2483 24.1539 29.3236 24.2147C29.4671 24.3302 29.6132 24.4419 29.7627 24.5499C31.181 25.5741 32.8283 26.2194 34.5639 26.4339C34.9915 26.4868 35.4224 26.5134 35.853 26.5134C36.2835 26.5134 36.7144 26.4868 37.142 26.4339C38.8776 26.2194 40.5249 25.5741 41.9432 24.5499C42.0927 24.4419 42.2388 24.3302 42.3823 24.2147ZM35.853 6.73451C36.2164 6.73451 36.5799 6.75701 36.9404 6.80163C41.3328 7.34501 44.6325 11.0942 44.6325 15.5211C44.6325 19.948 41.3328 23.6972 36.9404 24.2402C36.5799 24.2848 36.2164 24.3073 35.853 24.3073C35.4895 24.3073 35.126 24.2848 34.7655 24.2402C30.3732 23.6972 27.0731 19.948 27.0731 15.5211C27.0731 11.0942 30.3728 7.34463 34.7655 6.80163C35.126 6.75701 35.4895 6.73451 35.853 6.73451ZM35.853 10.2209C35.5603 10.2209 35.2677 10.2452 34.9791 10.2932C32.4281 10.7162 30.5568 12.9347 30.5568 15.5211C30.5568 18.0775 32.3884 20.2851 34.9057 20.737L34.9791 20.749C35.2677 20.797 35.5603 20.8213 35.853 20.8213C36.1456 20.8213 36.4383 20.797 36.7272 20.749C39.2778 20.3256 41.1492 18.1071 41.1492 15.5211C41.1492 12.9625 39.3149 10.7545 36.7957 10.3045L36.7268 10.2929C36.4383 10.2449 36.1456 10.2209 35.853 10.2209ZM43.3045 4.08252C44.5036 4.08252 45.4763 5.05564 45.4763 6.25601C45.4763 7.45638 44.5036 8.4295 43.3045 8.4295C42.105 8.4295 41.1327 7.45638 41.1327 6.25601C41.1327 5.05564 42.105 4.08252 43.3045 4.08252Z" fill="#FF645C"/>
<path fill-rule="evenodd" clip-rule="evenodd" d="M88.5527 6.69574C83.9303 7.26724 80.4578 11.213 80.4578 15.8716V29.814C80.4578 29.9164 80.5414 30 80.6437 30H83.9378C84.0401 30 84.1236 29.9164 84.1236 29.814V15.8716C84.1236 13.1502 86.0928 10.8151 88.7772 10.37C89.0811 10.3197 89.3891 10.2939 89.6971 10.2939C90.0051 10.2939 90.3128 10.3194 90.6167 10.37L90.6894 10.382C93.3405 10.8556 95.2706 13.1791 95.2706 15.8716C95.2706 18.5929 93.3015 20.9277 90.6167 21.3732C90.3128 21.4234 90.0051 21.4493 89.6971 21.4493C89.3891 21.4493 89.0811 21.4238 88.7776 21.3732L88.7004 21.3604C87.8389 21.2059 87.0273 20.8478 86.3311 20.3183C86.2715 20.2733 86.2025 20.2666 86.1358 20.2999C86.0691 20.3329 86.0328 20.3918 86.0328 20.4664V24.2401C86.0328 24.3184 86.0748 24.3814 86.1471 24.4118C86.916 24.7317 87.7261 24.945 88.5527 25.0474C88.9323 25.0943 89.3145 25.1179 89.6971 25.1179C90.0797 25.1179 90.4619 25.0943 90.8415 25.0474C95.464 24.4756 98.9364 20.5302 98.9364 15.8716C98.9364 11.213 95.464 7.26724 90.8415 6.69574C90.4619 6.64887 90.0797 6.62524 89.6971 6.62524C89.3145 6.62524 88.9323 6.64887 88.5527 6.69574Z" fill="#151516"/>
</svg>
